<svg xmlns="http://www.w3.org/2000/svg" xmlns:xlink="http://www.w3.org/1999/xlink" width="717" zoomAndPan="magnify" viewBox="0 0 537.75 525.000007" height="700" preserveAspectRatio="xMidYMid meet" version="1.2"><defs><clipPath id="81f81b2e1a"><path d="M 0.386719 272 L 254 272 L 254 450.511719 L 0.386719 450.511719 Z M 0.386719 272 "/></clipPath><clipPath id="bc6fb4ccb9"><path d="M 0.386719 272 L 189 272 L 189 450.511719 L 0.386719 450.511719 Z M 0.386719 272 "/></clipPath></defs><g id="cd3eee068d"><path style=" stroke:none;fill-rule:nonzero;fill:#fbb078;fill-opacity:1;" d="M 213.132812 60.644531 C 206.34375 54.042969 194.773438 53.5625 192.703125 64.660156 C 189.941406 79.5 189.378906 87.980469 183.550781 102.699219 C 166.734375 145.199219 153.667969 162.699219 156.574219 212.050781 C 157.25 223.542969 161.109375 234.796875 157.847656 246.304688 C 155.886719 253.238281 150.164062 261.023438 146.957031 267.40625 L 246.792969 327.082031 C 249.519531 324.617188 252.171875 320.265625 254.726562 317.679688 C 263.109375 309.207031 272.359375 305.109375 281.917969 298.457031 C 294.765625 289.511719 311.566406 273.804688 318.707031 259.757812 C 319.492188 259.660156 213.132812 60.644531 213.132812 60.644531 Z M 213.132812 60.644531 "/><path style=" stroke:none;fill-rule:nonzero;fill:#f0a072;fill-opacity:1;" d="M 213.917969 105.113281 C 212.292969 113.71875 210.628906 122.09375 209.035156 131.871094 C 207.222656 142.988281 203.019531 154.070312 201.101562 165.164062 C 200.914062 166.257812 200.71875 167.367188 200.710938 168.480469 C 200.660156 175.523438 206.882812 181.246094 211.429688 184.0625 C 212.398438 184.664062 213.222656 184.335938 213.910156 183.269531 L 213.910156 105.113281 Z M 213.917969 105.113281 "/><path style=" stroke:none;fill-rule:nonzero;fill:#f0a072;fill-opacity:1;" d="M 318.707031 259.757812 C 318.855469 259.742188 315.066406 252.410156 308.847656 240.578125 C 306.632812 240.625 304.40625 240.667969 302.1875 240.714844 C 286.636719 241.027344 271.078125 241.34375 255.527344 241.664062 C 242.914062 241.921875 230.292969 242.183594 217.679688 242.4375 C 216.539062 242.460938 215.042969 242.257812 213.820312 242.414062 C 213.214844 243.277344 212.210938 243.089844 212.210938 244.316406 C 212.210938 247.523438 213.304688 254.289062 213.804688 256.371094 C 214.839844 260.613281 216.539062 264.484375 219.25 267.910156 C 222.621094 272.179688 227.753906 274.671875 232.898438 276.425781 C 249.941406 282.222656 269.425781 280.121094 285.777344 287.820312 C 287.835938 288.785156 289.992188 289.632812 292.015625 290.683594 C 302.519531 281.828125 313.34375 270.328125 318.707031 259.773438 Z M 318.707031 259.757812 "/><path style=" stroke:none;fill-rule:nonzero;fill:#f0a072;fill-opacity:1;" d="M 214.710938 241.464844 C 214.953125 241.320312 215.160156 241.195312 215.304688 241.113281 C 215.152344 241.195312 214.9375 241.320312 214.710938 241.464844 Z M 214.710938 241.464844 "/><path style=" stroke:none;fill-rule:nonzero;fill:#f0a072;fill-opacity:1;" d="M 215.304688 241.113281 C 215.386719 241.066406 215.460938 241.027344 215.476562 241.015625 C 215.507812 240.992188 215.429688 241.035156 215.304688 241.113281 Z M 215.304688 241.113281 "/><path style=" stroke:none;fill-rule:nonzero;fill:#f0a072;fill-opacity:1;" d="M 214.710938 241.464844 C 213.925781 241.941406 212.855469 242.609375 213.199219 242.519531 C 213.394531 242.46875 213.601562 242.429688 213.8125 242.40625 C 213.871094 242.316406 213.941406 242.226562 213.992188 242.117188 C 214.082031 241.914062 214.398438 241.671875 214.703125 241.472656 Z M 214.710938 241.464844 "/><path style=" stroke:none;fill-rule:nonzero;fill:#2d2d2d;fill-opacity:1;" d="M 339.199219 4.515625 L 232.621094 4.515625 C 221.347656 4.515625 212.210938 13.65625 212.210938 24.929688 L 212.210938 243.328125 C 212.210938 254.605469 221.347656 263.742188 232.621094 263.742188 L 339.199219 263.742188 C 350.472656 263.742188 359.613281 254.605469 359.613281 243.328125 L 359.613281 24.929688 C 359.613281 13.65625 350.472656 4.515625 339.199219 4.515625 Z M 339.199219 4.515625 "/><path style=" stroke:none;fill-rule:nonzero;fill:#ffffff;fill-opacity:1;" d="M 339.199219 12.683594 C 345.957031 12.683594 351.449219 18.175781 351.449219 24.929688 L 351.449219 243.328125 C 351.449219 250.085938 345.957031 255.578125 339.199219 255.578125 L 232.621094 255.578125 C 225.867188 255.578125 220.375 250.085938 220.375 243.328125 L 220.375 24.929688 C 220.375 18.175781 225.867188 12.683594 232.621094 12.683594 L 339.199219 12.683594 "/><path style=" stroke:none;fill-rule:nonzero;fill:#fcca03;fill-opacity:1;" d="M 395.761719 149.265625 L 351.441406 149.15625 L 351.441406 166.722656 L 240.414062 166.722656 C 235.902344 166.722656 232.246094 163.066406 232.246094 158.554688 L 232.246094 60.433594 C 232.246094 55.804688 236 52.050781 240.628906 52.050781 L 395.851562 52.050781 C 400.484375 52.050781 404.234375 55.804688 404.234375 60.433594 L 404.234375 140.882812 C 404.234375 145.550781 400.421875 149.320312 395.757812 149.265625 Z M 395.761719 149.265625 "/><path style=" stroke:none;fill-rule:nonzero;fill:#2d2d2d;fill-opacity:1;" d="M 334.152344 91.101562 L 351.972656 91.101562 L 351.972656 73.28125 L 334.152344 73.28125 Z M 336.371094 75.5 L 349.753906 75.5 L 349.753906 88.886719 L 336.371094 88.886719 Z M 336.371094 75.5 "/><path style=" stroke:none;fill-rule:nonzero;fill:#2d2d2d;fill-opacity:1;" d="M 339.140625 78.269531 L 346.984375 78.269531 L 346.984375 86.113281 L 339.140625 86.113281 Z M 339.140625 78.269531 "/><path style=" stroke:none;fill-rule:nonzero;fill:#2d2d2d;fill-opacity:1;" d="M 351.972656 108.933594 L 334.152344 108.933594 L 334.152344 126.753906 L 351.972656 126.753906 Z M 349.753906 124.539062 L 336.371094 124.539062 L 336.371094 111.148438 L 349.753906 111.148438 Z M 349.753906 124.539062 "/><path style=" stroke:none;fill-rule:nonzero;fill:#2d2d2d;fill-opacity:1;" d="M 339.140625 113.921875 L 346.984375 113.921875 L 346.984375 121.765625 L 339.140625 121.765625 Z M 339.140625 113.921875 "/><path style=" stroke:none;fill-rule:nonzero;fill:#2d2d2d;fill-opacity:1;" d="M 387.621094 73.28125 L 369.800781 73.28125 L 369.800781 91.101562 L 387.621094 91.101562 Z M 385.402344 88.886719 L 372.019531 88.886719 L 372.019531 75.5 L 385.402344 75.5 Z M 385.402344 88.886719 "/><path style=" stroke:none;fill-rule:nonzero;fill:#2d2d2d;fill-opacity:1;" d="M 374.789062 78.269531 L 382.632812 78.269531 L 382.632812 86.113281 L 374.789062 86.113281 Z M 374.789062 78.269531 "/><path style=" stroke:none;fill-rule:nonzero;fill:#2d2d2d;fill-opacity:1;" d="M 354.519531 78.375 L 357.066406 78.375 L 357.066406 80.921875 L 354.519531 80.921875 Z M 354.519531 78.375 "/><path style=" stroke:none;fill-rule:nonzero;fill:#2d2d2d;fill-opacity:1;" d="M 359.613281 78.375 L 362.160156 78.375 L 362.160156 80.921875 L 359.613281 80.921875 Z M 359.613281 78.375 "/><path style=" stroke:none;fill-rule:nonzero;fill:#2d2d2d;fill-opacity:1;" d="M 359.613281 73.28125 L 362.160156 73.28125 L 362.160156 75.828125 L 359.613281 75.828125 Z M 359.613281 73.28125 "/><path style=" stroke:none;fill-rule:nonzero;fill:#2d2d2d;fill-opacity:1;" d="M 367.253906 75.828125 L 367.253906 73.28125 L 364.707031 73.28125 L 364.707031 78.375 L 367.253906 78.375 Z M 367.253906 75.828125 "/><path style=" stroke:none;fill-rule:nonzero;fill:#2d2d2d;fill-opacity:1;" d="M 364.707031 88.5625 L 367.253906 88.5625 L 367.253906 91.109375 L 364.707031 91.109375 Z M 364.707031 88.5625 "/><path style=" stroke:none;fill-rule:nonzero;fill:#2d2d2d;fill-opacity:1;" d="M 377.433594 108.933594 L 379.980469 108.933594 L 379.980469 103.839844 L 377.433594 103.839844 Z M 377.433594 108.933594 "/><path style=" stroke:none;fill-rule:nonzero;fill:#2d2d2d;fill-opacity:1;" d="M 387.621094 116.574219 L 387.621094 106.386719 L 385.074219 106.386719 L 385.074219 103.839844 L 382.527344 103.839844 L 382.527344 119.121094 L 385.074219 119.121094 L 385.074219 116.574219 Z M 387.621094 116.574219 "/><path style=" stroke:none;fill-rule:nonzero;fill:#2d2d2d;fill-opacity:1;" d="M 379.980469 119.121094 L 382.527344 119.121094 L 382.527344 121.667969 L 379.980469 121.667969 Z M 379.980469 119.121094 "/><path style=" stroke:none;fill-rule:nonzero;fill:#2d2d2d;fill-opacity:1;" d="M 385.074219 119.121094 L 387.621094 119.121094 L 387.621094 121.667969 L 385.074219 121.667969 Z M 385.074219 119.121094 "/><path style=" stroke:none;fill-rule:nonzero;fill:#2d2d2d;fill-opacity:1;" d="M 382.527344 124.214844 L 382.527344 126.753906 L 387.621094 126.753906 L 387.621094 124.214844 L 385.074219 124.214844 L 385.074219 121.667969 L 382.527344 121.667969 Z M 382.527344 124.214844 "/><path style=" stroke:none;fill-rule:nonzero;fill:#2d2d2d;fill-opacity:1;" d="M 372.347656 121.667969 L 377.433594 121.667969 L 377.433594 116.574219 L 374.894531 116.574219 L 374.894531 114.027344 L 377.433594 114.027344 L 377.433594 108.933594 L 374.894531 108.933594 L 374.894531 111.480469 L 369.800781 111.480469 L 369.800781 116.574219 L 372.347656 116.574219 L 372.347656 119.121094 L 369.800781 119.121094 L 369.800781 116.574219 L 367.253906 116.574219 L 367.253906 121.667969 L 364.707031 121.667969 L 364.707031 116.574219 L 362.160156 116.574219 L 362.160156 121.667969 L 359.613281 121.667969 L 359.613281 124.214844 L 357.066406 124.214844 L 357.066406 121.667969 L 359.613281 121.667969 L 359.613281 114.027344 L 357.066406 114.027344 L 357.066406 108.933594 L 362.160156 108.933594 L 362.160156 106.386719 L 354.519531 106.386719 L 354.519531 116.574219 L 357.066406 116.574219 L 357.066406 119.121094 L 354.519531 119.121094 L 354.519531 126.753906 L 364.707031 126.753906 L 364.707031 124.214844 L 367.253906 124.214844 L 367.253906 126.753906 L 372.347656 126.753906 L 372.347656 124.214844 L 369.800781 124.214844 L 369.800781 121.667969 Z M 372.347656 121.667969 "/><path style=" stroke:none;fill-rule:nonzero;fill:#2d2d2d;fill-opacity:1;" d="M 377.433594 114.027344 L 379.980469 114.027344 L 379.980469 116.574219 L 377.433594 116.574219 Z M 377.433594 114.027344 "/><path style=" stroke:none;fill-rule:nonzero;fill:#2d2d2d;fill-opacity:1;" d="M 379.980469 93.648438 L 382.527344 93.648438 L 382.527344 96.199219 L 379.980469 96.199219 Z M 379.980469 93.648438 "/><path style=" stroke:none;fill-rule:nonzero;fill:#2d2d2d;fill-opacity:1;" d="M 382.527344 101.292969 L 387.621094 101.292969 L 387.621094 96.199219 L 382.527344 96.199219 L 382.527344 98.746094 L 379.980469 98.746094 L 379.980469 96.199219 L 377.433594 96.199219 L 377.433594 101.292969 Z M 382.527344 101.292969 "/><path style=" stroke:none;fill-rule:nonzero;fill:#2d2d2d;fill-opacity:1;" d="M 359.613281 91.101562 L 359.613281 96.199219 L 362.160156 96.199219 L 362.160156 88.5625 L 364.707031 88.5625 L 364.707031 86.015625 L 367.253906 86.015625 L 367.253906 80.921875 L 364.707031 80.921875 L 364.707031 83.46875 L 362.160156 83.46875 L 362.160156 86.015625 L 359.613281 86.015625 L 359.613281 83.46875 L 357.066406 83.46875 L 357.066406 88.5625 L 359.613281 88.5625 Z M 359.613281 91.101562 "/><path style=" stroke:none;fill-rule:nonzero;fill:#2d2d2d;fill-opacity:1;" d="M 346.878906 103.839844 L 346.878906 106.386719 L 351.972656 106.386719 L 351.972656 103.839844 L 349.425781 103.839844 L 349.425781 101.292969 L 346.878906 101.292969 Z M 346.878906 103.839844 "/><path style=" stroke:none;fill-rule:nonzero;fill:#2d2d2d;fill-opacity:1;" d="M 349.425781 98.746094 L 351.972656 98.746094 L 351.972656 101.292969 L 349.425781 101.292969 Z M 349.425781 98.746094 "/><path style=" stroke:none;fill-rule:nonzero;fill:#2d2d2d;fill-opacity:1;" d="M 344.332031 98.746094 L 344.332031 96.199219 L 341.792969 96.199219 L 341.792969 93.648438 L 334.152344 93.648438 L 334.152344 106.386719 L 336.699219 106.386719 L 336.699219 103.839844 L 341.792969 103.839844 L 341.792969 101.292969 L 339.246094 101.292969 L 339.246094 98.746094 L 341.792969 98.746094 L 341.792969 101.292969 L 346.878906 101.292969 L 346.878906 98.746094 Z M 344.332031 98.746094 "/><path style=" stroke:none;fill-rule:nonzero;fill:#2d2d2d;fill-opacity:1;" d="M 341.792969 103.839844 L 344.339844 103.839844 L 344.339844 106.386719 L 341.792969 106.386719 Z M 341.792969 103.839844 "/><path style=" stroke:none;fill-rule:nonzero;fill:#2d2d2d;fill-opacity:1;" d="M 364.707031 103.839844 L 367.253906 103.839844 L 367.253906 106.386719 L 369.800781 106.386719 L 369.800781 108.933594 L 374.894531 108.933594 L 374.894531 103.839844 L 377.441406 103.839844 L 377.441406 101.292969 L 374.894531 101.292969 L 374.894531 96.199219 L 372.347656 96.199219 L 372.347656 98.746094 L 369.800781 98.746094 L 369.800781 96.199219 L 372.347656 96.199219 L 372.347656 93.648438 L 364.707031 93.648438 L 364.707031 96.199219 L 367.253906 96.199219 L 367.253906 101.292969 L 364.707031 101.292969 L 364.707031 96.199219 L 362.160156 96.199219 L 362.160156 98.746094 L 357.066406 98.746094 L 357.066406 88.554688 L 354.519531 88.554688 L 354.519531 93.648438 L 344.332031 93.648438 L 344.332031 96.199219 L 346.878906 96.199219 L 346.878906 98.746094 L 349.425781 98.746094 L 349.425781 96.199219 L 354.519531 96.199219 L 354.519531 103.839844 L 362.160156 103.839844 L 362.160156 106.386719 L 364.707031 106.386719 Z M 369.800781 101.292969 L 372.347656 101.292969 L 372.347656 103.839844 L 369.800781 103.839844 Z M 369.800781 101.292969 "/><path style=" stroke:none;fill-rule:nonzero;fill:#2d2d2d;fill-opacity:1;" d="M 364.707031 108.933594 L 367.253906 108.933594 L 367.253906 111.480469 L 364.707031 111.480469 Z M 364.707031 108.933594 "/><path style=" stroke:none;fill-rule:nonzero;fill:#2d2d2d;fill-opacity:1;" d="M 364.707031 114.027344 L 367.253906 114.027344 L 367.253906 116.574219 L 364.707031 116.574219 Z M 364.707031 114.027344 "/><path style=" stroke:none;fill-rule:nonzero;fill:#2d2d2d;fill-opacity:1;" d="M 359.613281 111.480469 L 362.160156 111.480469 L 362.160156 114.027344 L 359.613281 114.027344 Z M 359.613281 111.480469 "/><path style=" stroke:none;fill-rule:nonzero;fill:#ffffff;fill-opacity:1;" d="M 303.597656 94.796875 C 303.597656 95.5625 303.558594 96.328125 303.484375 97.089844 C 303.410156 97.855469 303.296875 98.613281 303.148438 99.363281 C 302.996094 100.117188 302.8125 100.859375 302.589844 101.59375 C 302.367188 102.324219 302.109375 103.046875 301.816406 103.753906 C 301.523438 104.464844 301.195312 105.15625 300.832031 105.832031 C 300.472656 106.507812 300.078125 107.164062 299.652344 107.804688 C 299.226562 108.441406 298.769531 109.054688 298.285156 109.648438 C 297.796875 110.242188 297.28125 110.808594 296.742188 111.351562 C 296.199219 111.894531 295.632812 112.40625 295.039062 112.894531 C 294.445312 113.378906 293.832031 113.835938 293.195312 114.261719 C 292.554688 114.6875 291.898438 115.082031 291.222656 115.441406 C 290.546875 115.804688 289.855469 116.132812 289.148438 116.425781 C 288.4375 116.71875 287.71875 116.976562 286.984375 117.199219 C 286.25 117.421875 285.507812 117.609375 284.753906 117.757812 C 284.003906 117.90625 283.246094 118.019531 282.484375 118.09375 C 281.71875 118.167969 280.957031 118.207031 280.1875 118.207031 C 279.421875 118.207031 278.65625 118.167969 277.894531 118.09375 C 277.132812 118.019531 276.375 117.90625 275.621094 117.757812 C 274.871094 117.609375 274.128906 117.421875 273.394531 117.199219 C 272.660156 116.976562 271.9375 116.71875 271.230469 116.425781 C 270.523438 116.132812 269.828125 115.804688 269.152344 115.441406 C 268.476562 115.082031 267.820312 114.6875 267.183594 114.261719 C 266.546875 113.835938 265.929688 113.378906 265.339844 112.894531 C 264.746094 112.40625 264.179688 111.894531 263.636719 111.351562 C 263.09375 110.808594 262.578125 110.242188 262.09375 109.648438 C 261.605469 109.054688 261.152344 108.441406 260.726562 107.804688 C 260.300781 107.164062 259.90625 106.507812 259.542969 105.832031 C 259.183594 105.15625 258.855469 104.464844 258.5625 103.753906 C 258.269531 103.046875 258.011719 102.324219 257.789062 101.59375 C 257.566406 100.859375 257.378906 100.117188 257.230469 99.363281 C 257.082031 98.613281 256.96875 97.855469 256.894531 97.089844 C 256.816406 96.328125 256.78125 95.5625 256.78125 94.796875 C 256.78125 94.03125 256.816406 93.265625 256.894531 92.5 C 256.96875 91.738281 257.082031 90.980469 257.230469 90.230469 C 257.378906 89.476562 257.566406 88.734375 257.789062 88 C 258.011719 87.265625 258.269531 86.546875 258.5625 85.835938 C 258.855469 85.128906 259.183594 84.4375 259.542969 83.761719 C 259.90625 83.085938 260.300781 82.429688 260.726562 81.789062 C 261.152344 81.152344 261.605469 80.539062 262.09375 79.945312 C 262.578125 79.351562 263.09375 78.785156 263.636719 78.242188 C 264.179688 77.699219 264.746094 77.1875 265.339844 76.699219 C 265.929688 76.214844 266.546875 75.757812 267.183594 75.332031 C 267.820312 74.90625 268.476562 74.511719 269.152344 74.148438 C 269.828125 73.789062 270.523438 73.460938 271.230469 73.167969 C 271.9375 72.875 272.660156 72.617188 273.394531 72.394531 C 274.128906 72.171875 274.871094 71.984375 275.621094 71.835938 C 276.375 71.6875 277.132812 71.574219 277.894531 71.5 C 278.65625 71.421875 279.421875 71.386719 280.1875 71.386719 C 280.957031 71.386719 281.71875 71.421875 282.484375 71.5 C 283.246094 71.574219 284.003906 71.6875 284.753906 71.835938 C 285.507812 71.984375 286.25 72.171875 286.984375 72.394531 C 287.71875 72.617188 288.4375 72.875 289.148438 73.167969 C 289.855469 73.460938 290.546875 73.789062 291.222656 74.148438 C 291.898438 74.511719 292.554688 74.90625 293.195312 75.332031 C 293.832031 75.757812 294.445312 76.214844 295.039062 76.699219 C 295.632812 77.1875 296.199219 77.699219 296.742188 78.242188 C 297.28125 78.785156 297.796875 79.351562 298.285156 79.945312 C 298.769531 80.539062 299.226562 81.152344 299.652344 81.789062 C 300.078125 82.429688 300.472656 83.085938 300.832031 83.761719 C 301.195312 84.4375 301.523438 85.128906 301.816406 85.835938 C 302.109375 86.546875 302.367188 87.265625 302.589844 88 C 302.8125 88.734375 302.996094 89.476562 303.148438 90.230469 C 303.296875 90.980469 303.410156 91.738281 303.484375 92.5 C 303.558594 93.265625 303.597656 94.03125 303.597656 94.796875 Z M 303.597656 94.796875 "/><path style=" stroke:none;fill-rule:nonzero;fill:#2d2d2d;fill-opacity:1;" d="M 289.394531 86.757812 C 289.394531 87.363281 289.335938 87.960938 289.21875 88.554688 C 289.101562 89.148438 288.925781 89.722656 288.695312 90.28125 C 288.460938 90.839844 288.179688 91.371094 287.84375 91.875 C 287.507812 92.375 287.125 92.839844 286.699219 93.269531 C 286.269531 93.695312 285.804688 94.078125 285.304688 94.414062 C 284.800781 94.75 284.269531 95.03125 283.710938 95.265625 C 283.152344 95.496094 282.578125 95.671875 281.984375 95.789062 C 281.390625 95.90625 280.792969 95.964844 280.1875 95.964844 C 279.585938 95.964844 278.984375 95.90625 278.390625 95.789062 C 277.800781 95.671875 277.222656 95.496094 276.664062 95.265625 C 276.105469 95.03125 275.578125 94.75 275.074219 94.414062 C 274.570312 94.078125 274.105469 93.695312 273.679688 93.269531 C 273.25 92.839844 272.871094 92.375 272.535156 91.875 C 272.199219 91.371094 271.914062 90.839844 271.683594 90.28125 C 271.453125 89.722656 271.277344 89.148438 271.160156 88.554688 C 271.042969 87.960938 270.984375 87.363281 270.984375 86.757812 C 270.984375 86.152344 271.042969 85.554688 271.160156 84.960938 C 271.277344 84.371094 271.453125 83.792969 271.683594 83.234375 C 271.914062 82.675781 272.199219 82.144531 272.535156 81.644531 C 272.871094 81.140625 273.25 80.675781 273.679688 80.246094 C 274.105469 79.820312 274.570312 79.4375 275.074219 79.101562 C 275.578125 78.765625 276.105469 78.484375 276.664062 78.253906 C 277.222656 78.019531 277.800781 77.847656 278.390625 77.726562 C 278.984375 77.609375 279.585938 77.550781 280.1875 77.550781 C 280.792969 77.550781 281.390625 77.609375 281.984375 77.726562 C 282.578125 77.847656 283.152344 78.019531 283.710938 78.253906 C 284.269531 78.484375 284.800781 78.765625 285.304688 79.101562 C 285.804688 79.4375 286.269531 79.820312 286.699219 80.246094 C 287.125 80.675781 287.507812 81.140625 287.84375 81.644531 C 288.179688 82.144531 288.460938 82.675781 288.695312 83.234375 C 288.925781 83.792969 289.101562 84.371094 289.21875 84.960938 C 289.335938 85.554688 289.394531 86.152344 289.394531 86.757812 Z M 289.394531 86.757812 "/><path style=" stroke:none;fill-rule:nonzero;fill:#2d2d2d;fill-opacity:1;" d="M 296.503906 111.578125 C 294.472656 104.476562 287.941406 99.269531 280.1875 99.269531 C 272.4375 99.269531 265.902344 104.476562 263.875 111.578125 C 268.089844 115.675781 273.84375 118.207031 280.1875 118.207031 C 286.535156 118.207031 292.285156 115.675781 296.503906 111.578125 Z M 296.503906 111.578125 "/><path style=" stroke:none;fill-rule:nonzero;fill:#ffffff;fill-opacity:1;" d="M 308.878906 132.402344 L 251.5 132.402344 C 250.054688 132.402344 248.878906 131.226562 248.878906 129.78125 C 248.878906 128.335938 250.054688 127.160156 251.5 127.160156 L 308.878906 127.160156 C 310.324219 127.160156 311.5 128.335938 311.5 129.78125 C 311.5 131.226562 310.324219 132.402344 308.878906 132.402344 Z M 308.878906 132.402344 "/><path style=" stroke:none;fill-rule:nonzero;fill:#ffffff;fill-opacity:1;" d="M 320.734375 148.832031 L 251.5 148.832031 C 250.054688 148.832031 248.878906 147.65625 248.878906 146.210938 C 248.878906 144.765625 250.054688 143.589844 251.5 143.589844 L 320.734375 143.589844 C 322.183594 143.589844 323.359375 144.765625 323.359375 146.210938 C 323.359375 147.65625 322.183594 148.832031 320.734375 148.832031 Z M 320.734375 148.832031 "/><path style=" stroke:none;fill-rule:nonzero;fill:#f0a072;fill-opacity:1;" d="M 376.054688 215.054688 C 370.632812 218.605469 364.292969 219.25 359.613281 217.035156 L 359.613281 229.378906 L 378.175781 213.339844 L 370.894531 211.316406 C 370.9375 211.347656 370.976562 211.386719 371.023438 211.414062 C 372.691406 212.644531 374.378906 213.851562 376.054688 215.0625 Z M 376.054688 215.054688 "/><path style=" stroke:none;fill-rule:nonzero;fill:#e29969;fill-opacity:1;" d="M 359.613281 217.035156 C 364.292969 219.25 370.632812 218.605469 376.054688 215.054688 C 374.371094 213.851562 372.691406 212.636719 371.023438 211.40625 C 370.976562 211.378906 370.9375 211.339844 370.894531 211.3125 L 359.621094 208.1875 L 359.621094 217.035156 Z M 359.613281 217.035156 "/><path style=" stroke:none;fill-rule:nonzero;fill:#fbb078;fill-opacity:1;" d="M 383.402344 191.988281 C 383.953125 192.703125 384.410156 193.476562 384.773438 194.308594 C 385.140625 195.144531 385.40625 196.023438 385.570312 196.945312 C 385.738281 197.867188 385.800781 198.816406 385.765625 199.792969 C 385.726562 200.765625 385.585938 201.75 385.34375 202.742188 C 385.097656 203.734375 384.761719 204.714844 384.324219 205.683594 C 383.886719 206.652344 383.359375 207.589844 382.746094 208.5 C 382.132812 209.410156 381.441406 210.273438 380.671875 211.085938 C 379.902344 211.902344 379.074219 212.652344 378.179688 213.34375 C 377.285156 214.03125 376.347656 214.644531 375.367188 215.179688 C 374.382812 215.71875 373.371094 216.167969 372.335938 216.53125 C 371.300781 216.894531 370.261719 217.164062 369.210938 217.34375 C 368.164062 217.519531 367.128906 217.597656 366.109375 217.582031 C 365.089844 217.5625 364.101562 217.449219 363.148438 217.242188 C 362.195312 217.03125 361.292969 216.726562 360.445312 216.332031 C 359.59375 215.9375 358.8125 215.457031 358.097656 214.890625 C 357.382812 214.328125 356.753906 213.6875 356.203125 212.976562 C 355.652344 212.261719 355.195312 211.488281 354.828125 210.65625 C 354.464844 209.820312 354.199219 208.941406 354.03125 208.019531 C 353.863281 207.097656 353.800781 206.148438 353.839844 205.171875 C 353.878906 204.199219 354.019531 203.214844 354.261719 202.222656 C 354.503906 201.230469 354.84375 200.25 355.28125 199.28125 C 355.71875 198.3125 356.242188 197.375 356.855469 196.464844 C 357.472656 195.554688 358.164062 194.691406 358.929688 193.878906 C 359.699219 193.0625 360.53125 192.3125 361.421875 191.621094 C 362.316406 190.933594 363.253906 190.320312 364.238281 189.785156 C 365.222656 189.246094 366.230469 188.796875 367.265625 188.433594 C 368.300781 188.070312 369.34375 187.800781 370.390625 187.621094 C 371.4375 187.445312 372.472656 187.367188 373.492188 187.382812 C 374.515625 187.402344 375.5 187.515625 376.453125 187.722656 C 377.40625 187.933594 378.308594 188.238281 379.160156 188.632812 C 380.007812 189.027344 380.792969 189.507812 381.503906 190.074219 C 382.21875 190.636719 382.851562 191.277344 383.402344 191.988281 Z M 383.402344 191.988281 "/><path style=" stroke:none;fill-rule:nonzero;fill:#fbb078;fill-opacity:1;" d="M 381.660156 159.203125 C 382.25 159.882812 382.753906 160.628906 383.164062 161.4375 C 383.578125 162.25 383.894531 163.113281 384.113281 164.023438 C 384.335938 164.933594 384.453125 165.878906 384.472656 166.855469 C 384.488281 167.832031 384.40625 168.820312 384.222656 169.824219 C 384.035156 170.828125 383.753906 171.828125 383.375 172.820312 C 382.992188 173.8125 382.523438 174.78125 381.960938 175.722656 C 381.402344 176.667969 380.761719 177.566406 380.042969 178.425781 C 379.320312 179.285156 378.535156 180.082031 377.683594 180.820312 C 376.832031 181.5625 375.933594 182.226562 374.980469 182.820312 C 374.03125 183.414062 373.050781 183.921875 372.035156 184.34375 C 371.023438 184.765625 370 185.097656 368.964844 185.335938 C 367.925781 185.570312 366.898438 185.710938 365.878906 185.753906 C 364.859375 185.796875 363.867188 185.738281 362.902344 185.585938 C 361.941406 185.429688 361.023438 185.179688 360.152344 184.835938 C 359.28125 184.488281 358.472656 184.054688 357.726562 183.53125 C 356.980469 183.007812 356.3125 182.410156 355.722656 181.726562 C 355.132812 181.046875 354.628906 180.300781 354.21875 179.492188 C 353.804688 178.679688 353.488281 177.820312 353.269531 176.90625 C 353.046875 175.996094 352.929688 175.050781 352.910156 174.074219 C 352.894531 173.101562 352.976562 172.109375 353.164062 171.105469 C 353.347656 170.101562 353.628906 169.105469 354.007812 168.109375 C 354.390625 167.117188 354.859375 166.152344 355.421875 165.207031 C 355.980469 164.261719 356.621094 163.363281 357.339844 162.503906 C 358.0625 161.648438 358.847656 160.847656 359.699219 160.109375 C 360.550781 159.367188 361.453125 158.703125 362.402344 158.109375 C 363.351562 157.515625 364.332031 157.007812 365.347656 156.585938 C 366.359375 156.164062 367.382812 155.832031 368.417969 155.597656 C 369.457031 155.359375 370.484375 155.21875 371.503906 155.179688 C 372.523438 155.136719 373.515625 155.191406 374.480469 155.347656 C 375.441406 155.5 376.359375 155.75 377.230469 156.097656 C 378.101562 156.441406 378.910156 156.875 379.65625 157.398438 C 380.402344 157.921875 381.070312 158.523438 381.660156 159.203125 Z M 381.660156 159.203125 "/><path style=" stroke:none;fill-rule:nonzero;fill:#e6e6e7;fill-opacity:1;" d="M 125.773438 282.410156 L 244.261719 366.234375 L 265.460938 336.273438 L 146.964844 252.445312 Z M 125.773438 282.410156 "/><path style=" stroke:none;fill-rule:nonzero;fill:#ffffff;fill-opacity:1;" d="M 126.011719 283.34375 L 147.199219 253.382812 L 206.136719 295.070312 L 184.949219 325.03125 Z M 126.011719 283.34375 "/><g clip-rule="nonzero" clip-path="url(#81f81b2e1a)"><path style=" stroke:none;fill-rule:nonzero;fill:#006be3;fill-opacity:1;" d="M 124.015625 272.53125 L 0.386719 450.902344 L 193.160156 450.902344 L 253.347656 364.066406 Z M 124.015625 272.53125 "/></g><g clip-rule="nonzero" clip-path="url(#bc6fb4ccb9)"><path style=" stroke:none;fill-rule:nonzero;fill:#0076e0;fill-opacity:1;" d="M 124.015625 272.53125 L 0.386719 450.902344 L 96.769531 450.902344 L 188.667969 318.3125 Z M 124.015625 272.53125 "/></g><path style=" stroke:none;fill-rule:nonzero;fill:#fcca03;fill-opacity:1;" d="M 140.734375 315.515625 C 140.734375 316.273438 140.660156 317.027344 140.511719 317.769531 C 140.363281 318.515625 140.144531 319.238281 139.851562 319.941406 C 139.5625 320.640625 139.207031 321.308594 138.785156 321.9375 C 138.363281 322.570312 137.882812 323.152344 137.347656 323.691406 C 136.8125 324.226562 136.226562 324.707031 135.597656 325.128906 C 134.964844 325.550781 134.300781 325.90625 133.597656 326.195312 C 132.898438 326.484375 132.175781 326.707031 131.429688 326.851562 C 130.683594 327 129.933594 327.074219 129.175781 327.074219 C 128.417969 327.074219 127.664062 327 126.921875 326.851562 C 126.175781 326.707031 125.453125 326.484375 124.75 326.195312 C 124.050781 325.90625 123.382812 325.550781 122.753906 325.128906 C 122.121094 324.707031 121.539062 324.226562 121.003906 323.691406 C 120.464844 323.152344 119.984375 322.570312 119.566406 321.9375 C 119.144531 321.308594 118.785156 320.640625 118.496094 319.941406 C 118.207031 319.238281 117.988281 318.515625 117.839844 317.769531 C 117.691406 317.027344 117.617188 316.273438 117.617188 315.515625 C 117.617188 314.757812 117.691406 314.003906 117.839844 313.261719 C 117.988281 312.515625 118.207031 311.792969 118.496094 311.09375 C 118.785156 310.390625 119.144531 309.726562 119.566406 309.09375 C 119.984375 308.464844 120.464844 307.878906 121.003906 307.34375 C 121.539062 306.804688 122.121094 306.328125 122.753906 305.90625 C 123.382812 305.484375 124.050781 305.128906 124.75 304.835938 C 125.453125 304.546875 126.175781 304.328125 126.921875 304.179688 C 127.664062 304.03125 128.417969 303.957031 129.175781 303.957031 C 129.933594 303.957031 130.683594 304.03125 131.429688 304.179688 C 132.175781 304.328125 132.898438 304.546875 133.597656 304.835938 C 134.300781 305.128906 134.964844 305.484375 135.597656 305.90625 C 136.226562 306.328125 136.8125 306.804688 137.347656 307.34375 C 137.882812 307.878906 138.363281 308.464844 138.785156 309.09375 C 139.207031 309.726562 139.5625 310.390625 139.851562 311.09375 C 140.144531 311.792969 140.363281 312.515625 140.511719 313.261719 C 140.660156 314.003906 140.734375 314.757812 140.734375 315.515625 Z M 140.734375 315.515625 "/></g></svg>